<svg version="1.1" viewBox="0.0 0.0 134.96587926509187 100.0" fill="none" stroke="none" stroke-linecap="square" stroke-miterlimit="10" xmlns:xlink="http://www.w3.org/1999/xlink" xmlns="http://www.w3.org/2000/svg"><clipPath id="p.0"><path d="m0 0l134.96588 0l0 100.0l-134.96588 0l0 -100.0z" clip-rule="nonzero"/></clipPath><g clip-path="url(#p.0)"><path fill="#000000" fill-opacity="0.0" d="m0 0l134.96588 0l0 100.0l-134.96588 0z" fill-rule="evenodd"/><path fill="#000000" fill-opacity="0.0" d="m0 0l132.25197 0l0 121.22835l-132.25197 0z" fill-rule="evenodd"/><path fill="#000000" d="m31.03125 43.892498q0 2.453125 -0.5625 4.609375q-0.546875 2.15625 -1.921875 3.765625q-1.359375 1.609375 -3.6875 2.546875q-2.328125 0.9375 -5.875 0.9375q-3.265625 0 -5.625 -0.78125q-2.34375 -0.796875 -3.875 -1.859375l2.484375 -5.8125q1.40625 0.828125 2.984375 1.453125q1.578125 0.609375 3.453125 0.609375q2.734375 0 3.9375 -1.34375q1.203125 -1.34375 1.203125 -4.5l0 -21.703125l7.484375 0l0 22.078125zm28.708939 -22.453125q7.4375 0 11.421875 2.609375q3.984375 2.609375 3.984375 8.5625q0 6.0 -4.03125 8.671875q-4.03125 2.65625 -11.515625 2.65625l-2.359375 0l0 11.140625l-7.484375 0l0 -32.78125q2.4375 -0.484375 5.171875 -0.671875q2.75 -0.1875 4.8125 -0.1875zm0.46875 6.375q-0.8125 0 -1.609375 0.046875q-0.78125 0.046875 -1.359375 0.09375l0 9.609375l2.359375 0q3.875 0 5.84375 -1.046875q1.96875 -1.0625 1.96875 -3.953125q0 -1.390625 -0.5 -2.296875q-0.5 -0.921875 -1.4375 -1.46875q-0.9375 -0.546875 -2.28125 -0.765625q-1.34375 -0.21875 -2.984375 -0.21875zm41.04146 21.546875q1.59375 0 2.625 -0.25q1.03125 -0.265625 1.65625 -0.71875q0.625 -0.46875 0.859375 -1.09375q0.234375 -0.625 0.234375 -1.390625q0 -1.625 -1.53125 -2.703125q-1.53125 -1.078125 -5.28125 -2.328125q-1.625 -0.578125 -3.265625 -1.3125q-1.625 -0.75 -2.921875 -1.875q-1.296875 -1.140625 -2.109375 -2.75q-0.8125 -1.609375 -0.8125 -3.90625q0 -2.3125 0.859375 -4.15625q0.859375 -1.84375 2.4375 -3.140625q1.59375 -1.296875 3.84375 -1.984375q2.265625 -0.703125 5.09375 -0.703125q3.359375 0 5.796875 0.71875q2.453125 0.71875 4.046875 1.578125l-2.171875 5.90625q-1.390625 -0.71875 -3.09375 -1.265625q-1.703125 -0.546875 -4.09375 -0.546875q-2.6875 0 -3.875 0.75q-1.171875 0.734375 -1.171875 2.265625q0 0.90625 0.421875 1.53125q0.4375 0.625 1.234375 1.140625q0.796875 0.5 1.828125 0.90625q1.03125 0.40625 2.28125 0.84375q2.59375 0.953125 4.5 1.890625q1.921875 0.9375 3.1875 2.1875q1.28125 1.25 1.90625 2.9375q0.625 1.671875 0.625 4.0625q0 4.65625 -3.265625 7.234375q-3.265625 2.5625 -9.84375 2.5625q-2.203125 0 -3.984375 -0.265625q-1.765625 -0.265625 -3.140625 -0.640625q-1.359375 -0.390625 -2.34375 -0.8125q-0.984375 -0.4375 -1.65625 -0.828125l2.109375 -5.953125q1.484375 0.8125 3.671875 1.46875q2.1875 0.640625 5.34375 0.640625z" fill-rule="nonzero"/><path fill="#000000" fill-opacity="0.0" d="m0 60.614174l132.25197 0" fill-rule="evenodd"/><path stroke="#000000" stroke-width="4.0" stroke-linejoin="round" stroke-linecap="butt" d="m0 60.614174l132.25197 0" fill-rule="evenodd"/><path fill="#000000" fill-opacity="0.0" d="m0 60.614174l0 0" fill-rule="evenodd"/><path stroke="#000000" stroke-width="1.0" stroke-linejoin="round" stroke-linecap="butt" d="m0 60.614174l0 0" fill-rule="evenodd"/><path fill="#000000" fill-opacity="0.0" d="m0 60.614174l0 -52.031498" fill-rule="evenodd"/><path stroke="#000000" stroke-width="1.0" stroke-linejoin="round" stroke-linecap="butt" d="m0 60.614174l0 -52.031498" fill-rule="evenodd"/><path fill="#000000" fill-opacity="0.0" d="m0 8.582677l132.25197 0" fill-rule="evenodd"/><path stroke="#000000" stroke-width="2.0" stroke-linejoin="round" stroke-linecap="butt" d="m0 8.582677l132.25197 0" fill-rule="evenodd"/><path fill="#000000" fill-opacity="0.0" d="m132.25197 60.614174l0 -52.031498" fill-rule="evenodd"/><path stroke="#000000" stroke-width="3.0" stroke-linejoin="round" stroke-linecap="butt" d="m132.25197 60.614174l0 -52.031498" fill-rule="evenodd"/></g></svg>