<svg version="1.1" viewBox="0.0 0.0 284.7034120734908 100.0" fill="none" stroke="none" stroke-linecap="square" stroke-miterlimit="10" xmlns:xlink="http://www.w3.org/1999/xlink" xmlns="http://www.w3.org/2000/svg"><clipPath id="p.0"><path d="m0 0l284.7034 0l0 100.0l-284.7034 0l0 -100.0z" clip-rule="nonzero"/></clipPath><g clip-path="url(#p.0)"><path fill="#000000" fill-opacity="0.0" d="m0 0l284.7034 0l0 100.0l-284.7034 0z" fill-rule="evenodd"/><path fill="#000000" fill-opacity="0.0" d="m1.2257218 2.96063l279.81104 0l0 94.078735l-279.81104 0z" fill-rule="evenodd"/><path fill="#efefef" d="m32.256973 46.853127q0 2.453125 -0.5625019 4.609375q-0.546875 2.15625 -1.921875 3.765625q-1.359375 1.609375 -3.6875 2.546875q-2.328125 0.9375 -5.875 0.9375q-3.265625 0 -5.625 -0.78125q-2.34375 -0.796875 -3.875 -1.859375l2.484375 -5.8125q1.40625 0.828125 2.984375 1.453125q1.578125 0.609375 3.453125 0.609375q2.734375 0 3.9375 -1.34375q1.203125 -1.34375 1.203125 -4.5l0 -21.703123l7.484377 0l0 22.078123zm28.708939 -22.453123q7.4375 0 11.421875 2.609375q3.984375 2.609375 3.984375 8.562498q0 6.0 -4.03125 8.671875q-4.03125 2.65625 -11.515625 2.65625l-2.359375 0l0 11.140625l-7.484375 0l0 -32.78125q2.4375 -0.484375 5.171875 -0.671875q2.75 -0.1875 4.8125 -0.1875zm0.46875 6.375q-0.8125 0 -1.609375 0.046875q-0.78125 0.046875 -1.359375 0.09375l0 9.609373l2.359375 0q3.875 0 5.84375 -1.046875q1.96875 -1.0625 1.96875 -3.953125q0 -1.390625 -0.5 -2.296875q-0.5 -0.921875 -1.4375 -1.4687481q-0.9375 -0.546875 -2.28125 -0.765625q-1.34375 -0.21875 -2.984375 -0.21875zm41.04146 21.546873q1.59375 0 2.625 -0.25q1.03125 -0.265625 1.65625 -0.71875q0.625 -0.46875 0.859375 -1.09375q0.234375 -0.625 0.234375 -1.390625q0 -1.625 -1.53125 -2.703125q-1.53125 -1.078125 -5.28125 -2.328125q-1.625 -0.578125 -3.265625 -1.3125q-1.625 -0.75 -2.921875 -1.875q-1.296875 -1.140625 -2.109375 -2.75q-0.8125 -1.609375 -0.8125 -3.90625q0 -2.312498 0.859375 -4.156248q0.859375 -1.84375 2.4375 -3.140625q1.59375 -1.296875 3.84375 -1.984375q2.265625 -0.703125 5.09375 -0.703125q3.359375 0 5.796875 0.71875q2.453125 0.71875 4.046875 1.578125l-2.171875 5.906248q-1.390625 -0.7187481 -3.09375 -1.2656231q-1.703125 -0.546875 -4.09375 -0.546875q-2.6875 0 -3.875 0.75q-1.171875 0.734375 -1.171875 2.265623q0 0.90625 0.421875 1.53125q0.4375 0.625 1.234375 1.140625q0.796875 0.5 1.828125 0.90625q1.03125 0.40625 2.28125 0.84375q2.59375 0.953125 4.5 1.890625q1.921875 0.9375 3.1875 2.1875q1.28125 1.25 1.90625 2.9375q0.625 1.671875 0.625 4.0625q0 4.65625 -3.265625 7.234375q-3.265625 2.5625 -9.84375 2.5625q-2.203125 0 -3.984375 -0.265625q-1.765625 -0.265625 -3.140625 -0.640625q-1.359375 -0.390625 -2.34375 -0.8125q-0.984375 -0.4375 -1.65625 -0.828125l2.109375 -5.953125q1.484375 0.8125 3.671875 1.46875q2.1875 0.640625 5.34375 0.640625zm17.18605 -6.90625q0 -2.734375 0.890625 -5.15625q0.890625 -2.421875 2.5625 -4.21875q1.6875 -1.8125 4.078125 -2.859375q2.40625 -1.0625 5.484375 -1.0625q2.015625 0 3.6875 0.359375q1.6875 0.359375 3.265625 1.03125l-1.484375 5.71875q-1.015625 -0.390625 -2.21875 -0.671875q-1.1875 -0.296875 -2.671875 -0.296875q-3.171875 0 -4.734375 1.96875q-1.5625 1.96875 -1.5625 5.1875q0 3.40625 1.46875 5.28125q1.46875 1.875 5.109375 1.875q1.296875 0 2.78125 -0.234375q1.484375 -0.25 2.734375 -0.78125l1.015625 5.859375q-1.25 0.53125 -3.125 0.90625q-1.875 0.390625 -4.125 0.390625q-3.453125 0 -5.953125 -1.03125q-2.5 -1.03125 -4.109375 -2.796875q-1.609375 -1.78125 -2.359375 -4.203125q-0.734375 -2.4375 -0.734375 -5.265625zm25.20317 12.625l0 -36.09375l7.15625 -1.15625l0 12.093748q0.71875 -0.234375 1.84375 -0.453125q1.125 -0.21875 2.1875 -0.21875q3.0625 0 5.109375 0.84375q2.046875 0.84375 3.265625 2.375q1.21875 1.53125 1.71875 3.65625q0.515625 2.109375 0.515625 4.703125l0 14.25l-7.15625 0l0 -13.390625q0 -3.453125 -0.890625 -4.890625q-0.890625 -1.453125 -3.28125 -1.453125q-0.96875 0 -1.8125 0.171875q-0.828125 0.171875 -1.5 0.359375l0 19.203125l-7.15625 0zm42.147064 -13.390625q0 -3.453125 -0.890625 -4.890625q-0.890625 -1.453125 -3.046875 -1.453125q-0.671875 0 -1.390625 0.078125q-0.71875 0.078125 -1.390625 0.171875l0 19.484375l-7.15625 0l0 -24.390625q0.90625 -0.234375 2.125 -0.5q1.234375 -0.265625 2.59375 -0.46875q1.375 -0.21875 2.8125 -0.34375q1.453125 -0.125 2.84375 -0.125q2.734375 0 4.4375 0.703125q1.703125 0.6875 2.796875 1.65625q1.546875 -1.109375 3.53125 -1.734375q2.0 -0.625 3.671875 -0.625q3.03125 0 4.96875 0.84375q1.953125 0.84375 3.09375 2.375q1.15625 1.53125 1.578125 3.65625q0.4375 2.109375 0.4375 4.703125l0 14.25l-7.140625 0l0 -13.390625q0 -3.453125 -0.890625 -4.890625q-0.890625 -1.453125 -3.046875 -1.453125q-0.578125 0 -1.609375 0.296875q-1.03125 0.28125 -1.703125 0.71875q0.328125 1.109375 0.421875 2.328125q0.109375 1.21875 0.109375 2.609375l0 13.78125l-7.15625 0l0 -13.390625zm34.657333 13.390625l-7.15625 0l0 -25.25l7.15625 0l0 25.25zm0.671875 -32.546875q0 1.96875 -1.28125 3.109375q-1.265625 1.125 -3.0 1.125q-1.71875 0 -3.0 -1.125q-1.265625 -1.140625 -1.265625 -3.109375q0 -1.96875 1.265625 -3.09375q1.28125 -1.125 3.0 -1.125q1.734375 0 3.0 1.125q1.28125 1.125 1.28125 3.09375zm5.8095245 1.015625l7.140625 -1.15625l0 7.437498l8.59375 0l0 5.953125l-8.59375 0l0 8.875q0 2.265625 0.796875 3.609375q0.796875 1.34375 3.1875 1.34375q1.15625 0 2.375 -0.21875q1.234375 -0.21875 2.234375 -0.59375l1.015625 5.5625q-1.296875 0.53125 -2.890625 0.90625q-1.578125 0.390625 -3.875 0.390625q-2.9375 0 -4.859375 -0.796875q-1.90625 -0.796875 -3.0625 -2.203125q-1.15625 -1.421875 -1.609375 -3.4375q-0.453125 -2.015625 -0.453125 -4.453125l0 -21.218748zm40.499527 11.078123q-0.859375 0.96875 -2.328125 2.609375q-1.453125 1.625 -3.140625 3.59375q-1.671875 1.96875 -3.375 4.125q-1.703125 2.15625 -3.09375 4.171875l12.1875 0l0 5.953125l-20.874985 0l0 -4.21875q1.0 -1.734375 2.40625 -3.71875q1.421875 -2.0 2.984375 -4.015625q1.5625 -2.015625 3.0937347 -3.90625q1.546875 -1.90625 2.84375 -3.4375l-10.76561 0l0 -5.953125l20.062485 0l0 4.796875z" fill-rule="nonzero"/><path fill="#000000" fill-opacity="0.0" d="m4.5415006 71.93527l276.6614 0" fill-rule="evenodd"/><path stroke="#cccccc" stroke-width="4.0" stroke-linejoin="round" stroke-linecap="butt" d="m4.5415006 71.93527l276.6614 0" fill-rule="evenodd"/><path fill="#000000" fill-opacity="0.0" d="m3.667719 22.014313l279.811 0" fill-rule="evenodd"/><path stroke="#b7b7b7" stroke-width="2.0" stroke-linejoin="round" stroke-linecap="butt" d="m3.667719 22.014313l279.811 0" fill-rule="evenodd"/><path fill="#000000" fill-opacity="0.0" d="m3.6673224 71.93353l0 -48.56693" fill-rule="evenodd"/><path stroke="#cccccc" stroke-width="1.0" stroke-linejoin="round" stroke-linecap="butt" d="m3.6673224 71.93353l0 -48.56693" fill-rule="evenodd"/><path fill="#000000" fill-opacity="0.0" d="m282.07993 71.93353l0 -48.56693" fill-rule="evenodd"/><path stroke="#cccccc" stroke-width="3.0" stroke-linejoin="round" stroke-linecap="butt" d="m282.07993 71.93353l0 -48.56693" fill-rule="evenodd"/></g></svg>